<svg width="114" height="51" viewBox="0 0 114 51" fill="none" xmlns="http://www.w3.org/2000/svg">
<path d="M0.812218 28.2103L18.8818 17.2152V25.8238L12.5745 29.8724L18.8818 33.5801V42.6148L0.812218 31.9606V28.2103ZM89.4152 10.6522L68.2773 40.9102H61.97L83.0653 10.6522H89.4152ZM111.16 31.4066L93.1759 42.0608V35.6683L102.85 29.8724L93.1759 23.8208V17.7692L111.16 28.6365V31.4066Z" fill="#422C7C"/>
<path d="M25.3644 33.2473L32.4454 24.8682H25.807V21.0327H38.2872V24.3371L31.2357 32.7162H38.5527V36.5518H25.3644V33.2473Z" fill="white"/>
<path d="M44.3596 19.1453C45.0853 19.2692 45.7226 19.5613 46.2714 20.0216C46.8379 20.4641 47.2804 21.0217 47.5991 21.6944C47.9177 22.3671 48.0771 23.1106 48.0771 23.9249C48.0771 25.0402 47.7673 25.9961 47.1477 26.7927C46.5458 27.607 45.6784 28.2355 44.5454 28.678C43.4125 29.1206 42.0671 29.3418 40.5093 29.3418C39.1639 29.3418 37.9601 29.1648 36.898 28.8108C35.8359 28.4567 34.8888 27.9257 34.0568 27.2176L36.6325 23.5532C37.1458 23.9426 37.6858 24.2347 38.2522 24.4294C38.8364 24.6242 39.5003 24.7215 40.2438 24.7215C41.1466 24.7215 41.8016 24.5888 42.2087 24.3232C42.6336 24.04 42.846 23.5974 42.846 22.9955C42.846 22.3229 42.5805 21.8449 42.0494 21.5617C41.5183 21.2607 40.6509 21.1102 39.4471 21.1102H38.624V17.6052H39.5534C40.4031 17.6052 41.0846 17.437 41.598 17.1007C42.1114 16.7643 42.368 16.3218 42.368 15.773C42.368 15.4897 42.2972 15.2508 42.1556 15.056C42.0317 14.8436 41.837 14.6843 41.5714 14.5781C41.3236 14.4719 41.0138 14.4188 40.6421 14.4188C40.0402 14.4188 39.4648 14.5781 38.9161 14.8967C38.3673 15.1977 37.8893 15.6579 37.4822 16.2775L34.2958 12.5334C34.7206 12.0555 35.2871 11.6395 35.9952 11.2854C36.721 10.9314 37.5353 10.657 38.4381 10.4623C39.3409 10.2498 40.2703 10.1436 41.2262 10.1436C42.5362 10.1436 43.678 10.3384 44.6516 10.7278C45.643 11.1173 46.413 11.666 46.9618 12.3741C47.5106 13.0645 47.785 13.8788 47.785 14.8171C47.785 15.5074 47.6345 16.1624 47.3336 16.782C47.0326 17.4016 46.6255 17.9238 46.1121 18.3487C45.5987 18.7558 45.0145 19.0214 44.3596 19.1453Z" fill="white"/>
<path d="M44.7986 43.8779V25.0249H52.0477C54.1366 25.0249 55.8803 25.4498 57.2788 26.2995C58.695 27.1315 59.7571 28.2644 60.4652 29.6983C61.191 31.1145 61.5539 32.69 61.5539 34.4249C61.5539 36.3367 61.1556 38.0007 60.359 39.4169C59.5801 40.8331 58.4737 41.9307 57.0398 42.7096C55.6236 43.4885 53.9596 43.8779 52.0477 43.8779H44.7986ZM56.2963 34.4249C56.2963 33.4512 56.1281 32.6015 55.7918 31.8757C55.4554 31.1322 54.9686 30.5569 54.3313 30.1497C53.694 29.7426 52.9328 29.539 52.0477 29.539H49.9765V39.3638H52.0477C52.9505 39.3638 53.7117 39.1514 54.3313 38.7265C54.9686 38.3017 55.4554 37.7175 55.7918 36.974C56.1281 36.2128 56.2963 35.3631 56.2963 34.4249Z" fill="white"/>
</svg>
